<mxfile host="Electron" modified="2023-10-21T18:41:00.435Z" agent="Mozilla/5.0 (X11; Linux x86_64) AppleWebKit/537.36 (KHTML, like Gecko) draw.io/22.0.3 Chrome/114.0.5735.289 Electron/25.8.4 Safari/537.36" etag="6OxJvgA6H1k45IL-dXE1" version="22.0.3" type="device">
  <diagram name="Page-1" id="3s8Mr9fV86bxXnv5ueiO">
    <mxGraphModel dx="1434" dy="846" grid="1" gridSize="10" guides="1" tooltips="1" connect="1" arrows="1" fold="1" page="1" pageScale="1" pageWidth="850" pageHeight="1100" math="0" shadow="0">
      <root>
        <mxCell id="0" />
        <mxCell id="1" parent="0" />
        <mxCell id="2RzQeX3J7dK5pUtuHAfu-1" value="" style="rounded=0;whiteSpace=wrap;html=1;fontSize=20;" parent="1" vertex="1">
          <mxGeometry width="1280" height="720" as="geometry" />
        </mxCell>
        <mxCell id="2RzQeX3J7dK5pUtuHAfu-2" value="MENÜSÁV" style="rounded=1;whiteSpace=wrap;html=1;fontSize=20;" parent="1" vertex="1">
          <mxGeometry x="240" y="30" width="1000" height="60" as="geometry" />
        </mxCell>
        <mxCell id="2RzQeX3J7dK5pUtuHAfu-3" value="LÁBJEGYZET" style="rounded=1;whiteSpace=wrap;html=1;fontSize=20;" parent="1" vertex="1">
          <mxGeometry x="40" y="620" width="1200" height="60" as="geometry" />
        </mxCell>
        <mxCell id="2RzQeX3J7dK5pUtuHAfu-4" value="LOGÓ ÉS CÉGNÉV" style="rounded=1;whiteSpace=wrap;html=1;fontSize=20;" parent="1" vertex="1">
          <mxGeometry x="40" y="30" width="200" height="60" as="geometry" />
        </mxCell>
        <mxCell id="2RzQeX3J7dK5pUtuHAfu-5" value="" style="rounded=0;whiteSpace=wrap;html=1;fontSize=20;" parent="1" vertex="1">
          <mxGeometry x="40" y="90" width="1200" height="530" as="geometry" />
        </mxCell>
        <mxCell id="2RzQeX3J7dK5pUtuHAfu-7" value="PROFIL INFORMÁCIÓK" style="rounded=1;whiteSpace=wrap;html=1;fontSize=16;" parent="1" vertex="1">
          <mxGeometry x="392.5" y="110" width="495" height="210" as="geometry" />
        </mxCell>
        <mxCell id="2RzQeX3J7dK5pUtuHAfu-8" value="FIÓK TÖRLÉSE" style="rounded=1;whiteSpace=wrap;html=1;fillColor=#a20025;fontColor=#ffffff;strokeColor=#6F0000;fontSize=16;" parent="1" vertex="1">
          <mxGeometry x="650" y="550" width="220" height="40" as="geometry" />
        </mxCell>
        <mxCell id="2RzQeX3J7dK5pUtuHAfu-9" value="JELSZÓ MÓDOSÍTÁS" style="rounded=1;whiteSpace=wrap;html=1;fontSize=16;" parent="1" vertex="1">
          <mxGeometry x="400" y="550" width="230" height="40" as="geometry" />
        </mxCell>
        <mxCell id="2RzQeX3J7dK5pUtuHAfu-10" value="SZÁLLÍTÁSI INFORMÁCIÓK" style="rounded=1;whiteSpace=wrap;html=1;fontSize=16;" parent="1" vertex="1">
          <mxGeometry x="392.5" y="330" width="495" height="80" as="geometry" />
        </mxCell>
        <mxCell id="2RzQeX3J7dK5pUtuHAfu-12" value="MÓDOSÍTÁS" style="rounded=1;whiteSpace=wrap;html=1;fontSize=16;" parent="1" vertex="1">
          <mxGeometry x="400" y="420" width="230" height="40" as="geometry" />
        </mxCell>
        <mxCell id="2RzQeX3J7dK5pUtuHAfu-14" value="JELSZÓ" style="rounded=1;whiteSpace=wrap;html=1;fontSize=16;" parent="1" vertex="1">
          <mxGeometry x="392.5" y="470" width="495" height="30" as="geometry" />
        </mxCell>
        <mxCell id="2RzQeX3J7dK5pUtuHAfu-15" value="ÚJ JELSZÓ" style="rounded=1;whiteSpace=wrap;html=1;fontSize=16;" parent="1" vertex="1">
          <mxGeometry x="392.5" y="510" width="495" height="30" as="geometry" />
        </mxCell>
        <mxCell id="2RzQeX3J7dK5pUtuHAfu-16" value="TÖRLÉS" style="rounded=1;whiteSpace=wrap;html=1;fontSize=16;" parent="1" vertex="1">
          <mxGeometry x="650" y="420" width="230" height="40" as="geometry" />
        </mxCell>
      </root>
    </mxGraphModel>
  </diagram>
</mxfile>
